<?xml version="1.0" encoding="utf-8"?>
<svg version="1.1" id="Ebene_1" xmlns="http://www.w3.org/2000/svg" xmlns:xlink="http://www.w3.org/1999/xlink" x="0px" y="0px"
	 width="176px" height="32px" viewBox="0 0 176 32" style="enable-background:new 0 0 176 32;" xml:space="preserve">
<style type="text/css">
	.st0{fill:#C61293;}
	.st1{fill:#AABC24;}
	.st2{fill:#7AC6E4;}
	.st3{fill:#FFFFFF;}
</style>
<g>
	<path class="st0" d="M1.401,17.45c12.929,6.647,25.811-8.022,42.523-2.168c1.201,0.42,0.57,2.223-0.631,1.802
		c-16.126-5.649-28.779,9.255-42.765,2.064C-0.604,18.566,0.269,16.869,1.401,17.45"/>
	<path class="st0" d="M156.051,15.012c4.852-2.097,11.48,3.725,18.669,1.173c1.199-0.428,1.838,1.371,0.639,1.797
		c-7.662,2.721-14.749-2.861-18.551-1.217C155.64,17.27,154.881,15.517,156.051,15.012"/>
	<path class="st1" d="M10.952,10.719c14.303-11.78,16.629,14.304,32.576,4.248c1.076-0.679,2.096,0.934,1.018,1.613
		c-8.954,5.649-14.19,1.371-18.579-2.467c-4.595-4.019-7.809-6.855-13.801-1.92C11.185,13.002,9.971,11.527,10.952,10.719"/>
	<path class="st2" d="M18.984,12.891c5.84,2.368,15.158-7.732,25.064,2.831c0.87,0.93-0.522,2.234-1.391,1.305
		c-9.134-9.74-17.403,0.468-24.391-2.367C17.088,14.182,17.806,12.412,18.984,12.891"/>
	<path class="st3" d="M92.142,23.103c-1.633,0.543-4.727,1.005-5.402,1.79c-0.068,0.083-0.263,0.364,0.008,0.634
		C87.546,26.323,91.667,27.161,92.142,23.103 M91.928,14.055c-0.417-0.388-1.024-0.553-1.605-0.524
		c-1.218,0.055-2.572,1.299-2.655,3.318c-0.053,1.216,0.555,1.99,1.355,2.017C90.517,18.895,91.731,16.931,91.928,14.055
		 M94.125,22.427c0.022,2.079-0.434,4.147-2.749,5.217c-1.981,0.918-6.946,0.489-6.946-2.549c0-2.385,5.088-3.224,6.612-3.709
		c0.331-0.104,0.724-0.208,1.12-0.35c-0.05-0.606-0.143-1.173-0.2-1.656c-0.609,0.94-1.617,1.657-3.028,1.684
		c-0.909,0.015-1.864-0.382-2.541-1.201c-0.694,0.689-1.561,1.23-2.709,1.23c-1.772,0.011-2.824-0.939-3.43-2.381
		c-0.667,0.892-1.702,1.869-3.232,2.325c0.166,0.443,0.332,0.885,0.443,1.357c0.636,2.519,0.47,6.587-1.634,6.782
		c-1.799,0.165-3.377-2.023-4.041-5.898c-0.27-1.619-0.418-3.388-0.44-5.193c-0.459-0.106-0.912-0.281-1.356-0.509
		c-0.371,1.988-1.809,3.608-4.168,3.654c-1.619,0.035-2.852-0.801-3.579-2.007c-1.134,1.265-2.671,2.186-4.798,1.206
		c-0.504,0.28-1.093,0.42-1.679,0.391c-1.65-0.054-2.796-1.369-2.516-2.488c0.279-1.119,2.04,0.028,3.244,0.364
		c0.559-0.28,0.978-0.895,0.978-1.566c0.028-1.538-1.817-2.376-2.991-3.132c-0.533,1.566-1.399,3.188-2.461,4.642
		c-0.196,0.281-0.364,0.196-0.56,0c-0.167-0.169-0.421-0.616-0.504-0.839c-0.111-0.28-0.138-0.644,0.168-1.118
		c0.839-1.119,1.538-2.882,1.819-3.888c-0.198-0.308-0.336-0.643-0.336-1.062c0-0.922,0.783-2.209,1.789-2.209
		c1.007,0,0.81,1.454,0.587,2.489c2.35,1.426,4.726,2.21,4.698,4.949c0,0.644-0.223,1.314-0.588,1.93
		c0.984-0.124,1.665-0.807,2.442-1.826c-0.023-0.216-0.034-0.433-0.031-0.651c0.028-1.552,0.664-3.267,2.049-4.097
		c0.663-0.388,1.107-0.443,1.522-0.084c0.084-0.552,0.471-0.968,1.19-0.968c1.126-0.026,2.199,0.764,2.919,1.968
		c0.41,0.687,0.636,1.441,0.761,2.083c0.468,0.339,0.95,0.618,1.422,0.784c0.064-1.771,0.242-3.53,0.531-5.166
		c0.692-3.958,2.076-6.284,3.735-6.092c2.106,0.223,2.106,4.126,1.247,7.446c-0.582,2.188-1.606,4.21-2.658,5.619
		c0.665,0.224,1.246,0.693,1.743,1.302c1.283-0.213,2.73-1.253,3.705-2.766c-0.149-1.046-0.186-2.184-0.171-3.323
		c0-0.416,0.028-0.913,0.057-1.466h-0.222c-0.444-0.028-0.638-0.113-0.831-0.47c-0.139-0.25-0.249-0.583-0.304-0.916
		c-0.056-0.332,0.055-0.526,0.387-0.58c0.332-0.055,0.72-0.084,1.135-0.11c0.055-0.859,0.168-1.69,0.249-2.354
		c0.139-0.692,0.361-0.942,0.692-1.246c0.276-0.194,0.664-0.442,0.996-0.582c0.333-0.11,0.583,0.03,0.527,0.499
		c-0.165,0.887-0.332,2.215-0.472,3.627c0.749,0.026,1.496,0.056,2.132,0.111c0.443,0.027,0.609,0.164,0.748,0.497
		c0.083,0.222,0.166,0.637,0.166,0.969c0,0.332-0.055,0.498-0.36,0.527c-0.719,0.055-1.8,0.083-2.851,0.083
		c-0.027,0.579-0.055,1.161-0.055,1.715c-0.028,4.013,0.858,5.481,2.297,5.481c0.657,0.017,1.219-0.379,1.755-0.959
		c-0.053-0.312-0.079-0.647-0.076-1.006c0.026-3.072,2.408-5.481,4.706-5.425c0.719,0.026,1.355,0.194,1.881,0.554
		c0.056-0.251,0.083-0.472,0.138-0.694c0.056-0.276,0.222-0.388,0.555-0.359c0.303,0.027,0.553,0.138,0.803,0.304
		c0.331,0.221,0.47,0.609,0.441,1.191c-0.082,1.301-0.248,2.574-0.221,3.957c0,0.849,0.157,3.429,0.189,3.773
		c1.177-0.638,2.181-1.527,2.297-2.796c-0.014-0.163-0.018-0.333-0.016-0.505c0.026-3.072,2.518-5.481,4.87-5.481
		c0.747,0,1.384,0.167,1.939,0.553c0.222-0.415,0.526-0.663,0.939-0.553c0.887,0.222,1.302,1.578,1.33,2.574
		c0.028,1.136-0.222,2.435-0.775,3.433c0.139,0.831,0.526,1.355,0.97,1.355c0.741,0,1.272-0.552,1.879-1.345
		c0.577-1.043,0.949-2.549,1.063-4.301c-0.581-0.415-1.078-1.218-1.107-2.132c-0.027-0.636,0.25-1.301,1.052-1.383
		c0.885-0.082,1.909,0.859,2.02,2.214c0.665,0.195,1.44,0.195,2.103,0.333c1.135,0.221,1.579,0.83,1.44,2.187
		c-0.167,1.714-0.305,3.986,0.582,4.289c0.651,0.225,1.348-0.617,2.134-1.661c-0.087-3.154,2.099-5.563,4.339-5.563
		c0.888,0,1.747,0.276,2.299,0.858c0.166-3.265,0.084-6.589-0.054-8.997c-0.029-0.443,0.22-0.581,0.552-0.469
		c0.305,0.111,0.72,0.304,0.996,0.498c0.334,0.249,0.64,0.554,0.693,1.246c0.276,2.932,0,7.528-0.359,11.513
		c-0.169,1.967,0.306,2.436,0.857,2.52c0.599,0.083,1.461-0.001,2.215-0.547c-0.118-0.41-0.187-0.864-0.2-1.364
		c-0.054-2.545,1.746-5.423,4.402-5.423c1.52,0,2.768,1.134,2.74,2.794c-0.027,1.745-1.661,3.876-4.069,4.512
		c0.47,0.388,1.134,0.609,1.936,0.664c1.762,0.104,3.134-0.591,4.369-2.222c-0.092-1.597-0.071-3.264,0.052-4.289
		c0.084-0.722,0.308-1.001,0.668-1.279c0.251-0.195,0.557-0.363,0.918-0.474c0.389-0.11,0.668,0,0.613,0.5
		c-0.224,2.227-0.361,4.036-0.335,5.648c0.947-2.92,2.949-5.703,4.48-5.424c1.141,0.222,1.279,1.558,1.475,3.951
		c0.195,2.253,0.584,2.976,1.224,3.033c0.751,0.056,1.392-0.807,2.283-2.002c0.195-0.279,0.361-0.224,0.555-0.03
		c0.168,0.167,0.362,0.53,0.444,0.753c0.113,0.305,0.197,0.778-0.111,1.196c-0.583,0.806-1.863,2.363-3.365,2.392
		c-1.642,0.029-2.449-1.251-2.783-2.923c-0.306-1.558-0.194-3.116-0.584-3.116c-0.529,0-2.115,2.811-3.005,6.123
		c-0.139,0.473-0.334,0.584-0.891,0.444c-0.612-0.139-1.029-0.557-1.196-1.195c-0.063-0.232-0.118-0.495-0.169-0.78
		c-1.032,0.963-2.551,1.785-4.697,1.743c-1.378-0.034-2.795-0.473-3.758-1.474c-0.83,0.602-2.174,1.12-3.293,1.142
		c-1.08,0.027-1.966-0.527-2.492-1.578c-0.719,1.024-1.882,1.715-3.266,1.689c-1.095-0.019-2.227-0.603-2.895-1.799
		c-0.673,0.786-1.674,1.688-2.806,1.688c-1.965,0-3.155-1.938-2.685-6.255c0.056-0.554-0.026-0.777-0.581-0.858
		c-0.286-0.048-0.593-0.077-0.903-0.119l0.011,0.205c-0.092,2.715-1.137,6.215-4.003,6.876c-0.253,0.091-0.516,0.147-0.787,0.151
		c-1.053,0.027-1.829-0.61-2.354-1.633c-0.886,1.051-2.02,1.77-3.46,1.744c-0.849-0.015-1.724-0.358-2.384-1.049
		C96.562,21.047,95.418,21.848,94.125,22.427 M73.258,15.944c0.664-0.996,1.3-2.464,1.715-4.125
		c0.525-2.021,0.693-4.483,0.305-4.512c-0.387-0.056-1.134,2.16-1.441,3.848C73.535,12.816,73.34,14.366,73.258,15.944
		 M73.424,20.317c0.082,0.913,0.221,1.883,0.413,2.878c0.307,1.718,1.026,3.655,1.551,3.683c0.581,0,0.72-3.101-0.332-5.592
		C74.447,21.204,73.837,20.954,73.424,20.317 M102.583,13.813c-0.387-0.222-0.83-0.305-1.329-0.277
		c-1.272,0.055-2.768,1.327-2.849,3.321c-0.055,1.219,0.581,1.911,1.355,2.021c1.081,0.14,2.103-0.636,2.795-1.688
		c-0.055-0.554-0.082-1.136-0.082-1.744C102.473,14.893,102.528,14.339,102.583,13.813 M123.24,14.699
		c-0.469-0.804-1.273-1.191-1.993-1.163c-1.217,0.027-2.436,1.327-2.436,3.321c0,1.219,0.555,1.911,1.357,2.021
		C121.497,19.044,122.908,17.382,123.24,14.699 M130.266,16.969c1.854-0.637,2.74-2.051,2.711-2.88
		c-0.026-0.441-0.331-0.748-0.691-0.719c-1.025,0.055-2.049,1.523-2.049,3.21C130.237,16.718,130.237,16.857,130.266,16.969
		 M65.418,13.499c-1.061,0.327-1.806,1.508-1.806,3c0.027,1.492,0.886,2.629,2.269,2.629c1.357,0,2.103-1.33,2.103-2.685
		l-0.008-0.26c-1.009-0.864-1.883-1.85-2.516-2.627L65.418,13.499z M44.976,15.958c0,4.143,1.231,8.172,2.883,11.166
		c0.168,0.309,0.026,0.477-0.253,0.533c-0.281,0.055-0.643,0.027-0.924,0c-0.532-0.112-0.839-0.309-1.091-0.729
		c-1.651-2.742-2.713-7.025-2.713-10.97s1.091-8.197,2.713-10.968c0.252-0.42,0.559-0.616,1.064-0.699
		c0.28-0.055,0.67-0.085,0.951-0.029c0.279,0.055,0.421,0.224,0.253,0.531C46.207,7.789,44.976,11.818,44.976,15.958
		 M154.498,15.958c0-4.14-1.231-8.169-2.881-11.165c-0.17-0.307-0.03-0.476,0.25-0.531c0.281-0.056,0.673-0.026,0.951,0.029
		c0.533,0.083,0.813,0.279,1.065,0.699c1.623,2.771,2.714,7.023,2.714,10.968s-1.065,8.228-2.687,10.97
		c-0.252,0.42-0.559,0.617-1.092,0.729c-0.278,0.027-0.67,0.055-0.951,0c-0.28-0.056-0.42-0.197-0.223-0.533
		C153.267,24.13,154.498,20.101,154.498,15.958"/>
</g>
</svg>
